<svg width="28" height="28" viewBox="0 0 28 28" fill="none" xmlns="http://www.w3.org/2000/svg">
<circle cx="14" cy="14" r="14" fill="url(#paint0_linear_141_9165)"/>
<g clip-path="url(#clip0_141_9165)">
<path d="M21.3672 9.40753C21.3497 9.29691 21.1722 8.30316 20.4522 7.57753C19.7291 6.87003 18.7316 6.69503 18.6203 6.67753C18.4722 6.65316 18.3209 6.68441 18.1941 6.76316C18.1497 6.79066 17.4978 7.19878 16.2109 8.28691C16.8728 8.52066 17.7284 8.92628 18.4222 9.60503C19.1184 10.2863 19.5347 11.1244 19.7734 11.7744C20.8484 10.5182 21.2528 9.88191 21.2797 9.83816C21.3597 9.71003 21.3909 9.55691 21.3672 9.40753Z" fill="white"/>
<path d="M15.0933 9.26416C14.4227 9.86916 13.6421 10.6042 12.7483 11.4917C8.95894 15.2542 7.9652 16.7585 7.92457 16.8204C7.8677 16.9079 7.83332 17.0085 7.8252 17.1123L7.62582 19.6567C7.61207 19.8392 7.6777 20.0179 7.80707 20.1473C7.92457 20.2648 8.08395 20.3304 8.24957 20.3304C8.2652 20.3304 8.28145 20.3304 8.2977 20.3285L10.8608 20.131C10.9639 20.1229 11.0633 20.0898 11.1502 20.0342C11.2127 19.9942 12.7271 19.0073 16.5158 15.2454C17.4296 14.3379 18.1833 13.5479 18.8002 12.8723C18.7058 12.4667 18.3764 11.3092 17.5471 10.4985C16.7058 9.67541 15.4958 9.35291 15.0933 9.26416Z" fill="white"/>
</g>
<defs>
<linearGradient id="paint0_linear_141_9165" x1="-6.22918e-08" y1="14" x2="27.9999" y2="14.0546" gradientUnits="userSpaceOnUse">
<stop stop-color="#B306A7"/>
<stop offset="0.95" stop-color="#4C0593"/>
</linearGradient>
<clipPath id="clip0_141_9165">
<rect width="15" height="15" fill="white" transform="translate(7 6)"/>
</clipPath>
</defs>
</svg>
