<svg width="83" height="83" viewBox="0 0 83 83" fill="none" xmlns="http://www.w3.org/2000/svg">
<g clip-path="url(#clip0_141_9295)">
<path d="M31.1252 19.0208C31.1252 16.1504 33.4423 13.8333 36.3127 13.8333C39.1832 13.8333 41.5002 16.1504 41.5002 19.0208C41.5002 21.8912 39.1832 24.2083 36.3127 24.2083C33.4423 24.2083 31.1252 21.8912 31.1252 19.0208ZM83.0002 17.2917V38.0417C83.0002 47.5867 75.2536 55.3333 65.7086 55.3333H34.5836C25.0386 55.3333 17.2919 47.5867 17.2919 38.0417V17.2917C17.2919 7.74667 25.0386 0 34.5836 0H65.7086C75.2536 0 83.0002 7.74667 83.0002 17.2917ZM24.2086 38.0417C24.2086 40.7046 25.2115 43.1254 26.8715 44.9929L44.9932 26.8713C48.3823 23.4821 54.2961 23.4821 57.6852 26.8713L61.2819 30.4679C62.0773 31.2633 63.4261 31.2633 64.2215 30.4679L76.0836 18.6058V17.2917C76.0836 11.5854 71.4148 6.91667 65.7086 6.91667H34.5836C28.8773 6.91667 24.2086 11.5854 24.2086 17.2917V38.0417ZM76.0836 38.0417V28.3929L69.0977 35.3787C65.7086 38.7679 59.7948 38.7679 56.4057 35.3787L52.809 31.7821C52.0136 30.9867 50.6994 30.9867 49.8694 31.7821L33.304 48.3475C33.719 48.4167 34.134 48.4167 34.5836 48.4167H65.7086C71.4148 48.4167 76.0836 43.7479 76.0836 38.0417ZM62.5615 62.3883C60.7286 61.8696 58.8265 62.9762 58.3077 64.8092L57.3048 68.475C56.5786 71.1379 54.8494 73.3858 52.4286 74.7346C50.0077 76.1179 47.2065 76.4637 44.5436 75.7375L14.5252 67.5067C8.9919 65.985 5.74107 60.2787 7.26274 54.7454L10.5827 42.4338C11.0669 40.6008 9.99482 38.6987 8.1619 38.18C6.32899 37.6958 4.4269 38.7679 3.90815 40.6008L0.622735 52.8779C-1.90185 62.0771 3.52774 71.6221 12.7269 74.1467L42.7452 82.3775C44.2669 82.7925 45.8232 83 47.3448 83C50.319 83 53.224 82.2392 55.8869 80.7175C59.8986 78.435 62.769 74.7346 64.014 70.2733L65.0169 66.6075C65.5357 64.7746 64.429 62.8725 62.5961 62.3538L62.5615 62.3883Z" fill="#9D9D9D" fill-opacity="0.33"/>
</g>
<defs>
<clipPath id="clip0_141_9295">
<rect width="83" height="83" fill="white"/>
</clipPath>
</defs>
</svg>
