<svg width="34" height="34" viewBox="0 0 34 34" fill="none" xmlns="http://www.w3.org/2000/svg">
<g clip-path="url(#clip0_141_8879)">
<path d="M33.9348 7.85107L22.0093 19.7766C20.6796 21.1029 18.8781 21.8478 17 21.8478C15.1219 21.8478 13.3204 21.1029 11.9907 19.7766L0.0651667 7.85107C0.0453333 8.07491 0 8.27749 0 8.49991V25.4999C0.00224946 27.3778 0.749249 29.1782 2.07714 30.5061C3.40504 31.834 5.20541 32.581 7.08333 32.5832H26.9167C28.7946 32.581 30.595 31.834 31.9229 30.5061C33.2508 29.1782 33.9977 27.3778 34 25.4999V8.49991C34 8.27749 33.9547 8.07491 33.9348 7.85107Z" fill="url(#paint0_linear_141_8879)"/>
<path d="M20.0064 17.7733L32.9462 4.83209C32.3194 3.79271 31.4353 2.93239 30.3792 2.33412C29.3231 1.73585 28.1306 1.41982 26.9169 1.4165H7.08353C5.86976 1.41982 4.67733 1.73585 3.62124 2.33412C2.56515 2.93239 1.68104 3.79271 1.0542 4.83209L13.994 17.7733C14.7924 18.5685 15.8734 19.015 17.0002 19.015C18.127 19.015 19.208 18.5685 20.0064 17.7733Z" fill="url(#paint1_linear_141_8879)"/>
</g>
<defs>
<linearGradient id="paint0_linear_141_8879" x1="-7.564e-08" y1="20.2172" x2="33.9998" y2="20.3083" gradientUnits="userSpaceOnUse">
<stop stop-color="#B007A7"/>
<stop offset="0.95" stop-color="#4F0594"/>
</linearGradient>
<linearGradient id="paint1_linear_141_8879" x1="1.0542" y1="10.2158" x2="32.9458" y2="10.3285" gradientUnits="userSpaceOnUse">
<stop stop-color="#B007A7"/>
<stop offset="0.95" stop-color="#4F0594"/>
</linearGradient>
<clipPath id="clip0_141_8879">
<rect width="34" height="34" fill="white"/>
</clipPath>
</defs>
</svg>
