<svg width="41" height="41" viewBox="0 0 41 41" fill="none" xmlns="http://www.w3.org/2000/svg">
<rect width="41" height="41" rx="16" fill="black" fill-opacity="0.05"/>
<path d="M12.5215 16.6279C12.3066 16.4258 12.1992 16.1832 12.1992 15.9047C12.1992 15.6172 12.3115 15.3701 12.5313 15.1725C12.751 14.9748 13.0146 14.876 13.3174 14.876H28.3516C28.6641 14.876 28.9326 14.9748 29.1475 15.1725C29.3623 15.3701 29.4697 15.6127 29.4697 15.9047C29.4697 16.1832 29.3623 16.4258 29.1475 16.6279C28.9326 16.8301 28.6689 16.9334 28.3516 16.9334H13.3174C13 16.9334 12.7363 16.8301 12.5215 16.6279ZM29.1426 19.7814C29.3574 19.9836 29.4648 20.2262 29.4648 20.5047C29.4648 20.7922 29.3574 21.0393 29.1426 21.2369C28.9277 21.4346 28.6641 21.5334 28.3467 21.5334H13.3125C13.0098 21.5334 12.7461 21.4346 12.5264 21.2369C12.3066 21.0393 12.1943 20.7967 12.1943 20.5047C12.1943 20.2262 12.3066 19.9836 12.5264 19.7814C12.7461 19.5793 13.0098 19.476 13.3125 19.476H28.3467C28.6641 19.476 28.9277 19.5748 29.1426 19.7814ZM29.1426 24.3949C29.3574 24.5971 29.4648 24.8396 29.4648 25.1182C29.4648 25.4057 29.3574 25.6527 29.1426 25.8504C28.9277 26.048 28.6641 26.1469 28.3467 26.1469H13.3125C13.0098 26.1469 12.7461 26.048 12.5264 25.8504C12.3066 25.6527 12.1943 25.4102 12.1943 25.1182C12.1943 24.8396 12.3066 24.5971 12.5264 24.3949C12.7461 24.1928 13.0098 24.0895 13.3125 24.0895H28.3467C28.6641 24.0895 28.9277 24.1928 29.1426 24.3949Z" fill="#505050"/>
</svg>
