<svg width="53" height="53" viewBox="0 0 53 53" fill="none" xmlns="http://www.w3.org/2000/svg">
<path fill-rule="evenodd" clip-rule="evenodd" d="M12.8919 26.5001C12.8919 18.9844 18.9844 12.8919 26.5001 12.8919C34.0156 12.8919 40.1081 18.9844 40.1081 26.5001C40.1081 34.0156 34.0156 40.1081 26.5001 40.1081C18.9844 40.1081 12.8919 34.0156 12.8919 26.5001ZM26.5 35.3333C21.6215 35.3333 17.6667 31.3785 17.6667 26.5001C17.6667 21.6215 21.6215 17.6667 26.5 17.6667C31.3785 17.6667 35.3333 21.6215 35.3333 26.5001C35.3333 31.3785 31.3785 35.3333 26.5 35.3333Z" fill="url(#paint0_linear_141_9043)"/>
<path fill-rule="evenodd" clip-rule="evenodd" d="M12.8919 26.5001C12.8919 18.9844 18.9844 12.8919 26.5001 12.8919C34.0156 12.8919 40.1081 18.9844 40.1081 26.5001C40.1081 34.0156 34.0156 40.1081 26.5001 40.1081C18.9844 40.1081 12.8919 34.0156 12.8919 26.5001ZM26.5 35.3333C21.6215 35.3333 17.6667 31.3785 17.6667 26.5001C17.6667 21.6215 21.6215 17.6667 26.5 17.6667C31.3785 17.6667 35.3333 21.6215 35.3333 26.5001C35.3333 31.3785 31.3785 35.3333 26.5 35.3333Z" fill="url(#paint1_radial_141_9043)"/>
<path d="M40.6457 15.5342C42.402 15.5342 43.8258 14.1105 43.8258 12.3543C43.8258 10.598 42.402 9.17421 40.6457 9.17421C38.8896 9.17421 37.4658 10.598 37.4658 12.3543C37.4658 14.1105 38.8896 15.5342 40.6457 15.5342Z" fill="url(#paint2_linear_141_9043)"/>
<path d="M40.6457 15.5342C42.402 15.5342 43.8258 14.1105 43.8258 12.3543C43.8258 10.598 42.402 9.17421 40.6457 9.17421C38.8896 9.17421 37.4658 10.598 37.4658 12.3543C37.4658 14.1105 38.8896 15.5342 40.6457 15.5342Z" fill="url(#paint3_radial_141_9043)"/>
<path fill-rule="evenodd" clip-rule="evenodd" d="M26.5001 0C19.303 0 18.4006 0.0305057 15.5741 0.159471C12.7535 0.288121 10.8271 0.736133 9.14149 1.39127C7.39888 2.06839 5.92104 2.97451 4.44772 4.44772C2.97451 5.92104 2.06839 7.39888 1.39127 9.14149C0.736133 10.8271 0.288121 12.7535 0.159471 15.5741C0.0305057 18.4006 0 19.303 0 26.5001C0 33.697 0.0305057 34.5994 0.159471 37.4259C0.288121 40.2465 0.736133 42.1729 1.39127 43.8585C2.06839 45.6011 2.97451 47.079 4.44772 48.5523C5.92104 50.0255 7.39888 50.9316 9.14149 51.6088C10.8271 52.2639 12.7535 52.7119 15.5741 52.8405C18.4006 52.9695 19.303 53 26.5001 53C33.697 53 34.5994 52.9695 37.4259 52.8405C40.2465 52.7119 42.1729 52.2639 43.8585 51.6088C45.6011 50.9316 47.079 50.0255 48.5523 48.5523C50.0255 47.079 50.9316 45.6011 51.6088 43.8585C52.2639 42.1729 52.7119 40.2465 52.8405 37.4259C52.9695 34.5994 53 33.697 53 26.5001C53 19.303 52.9695 18.4006 52.8405 15.5741C52.7119 12.7535 52.2639 10.8271 51.6088 9.14149C50.9316 7.39888 50.0255 5.92104 48.5523 4.44772C47.079 2.97451 45.6011 2.06839 43.8585 1.39127C42.1729 0.736133 40.2465 0.288121 37.4259 0.159471C34.5994 0.0305057 33.697 0 26.5001 0ZM26.5001 4.77477C33.5758 4.77477 34.414 4.8018 37.2083 4.92929C39.792 5.04711 41.1952 5.47882 42.1289 5.84173C43.3659 6.32246 44.2487 6.8967 45.1759 7.82407C46.1033 8.75134 46.6776 9.63411 47.1583 10.8711C47.5212 11.8048 47.9529 13.208 48.0707 15.7917C48.1982 18.586 48.2252 19.4242 48.2252 26.5001C48.2252 33.5758 48.1982 34.414 48.0707 37.2083C47.9529 39.792 47.5212 41.1952 47.1583 42.1289C46.6776 43.3659 46.1033 44.2487 45.1759 45.1759C44.2487 46.1033 43.3659 46.6775 42.1289 47.1583C41.1952 47.5212 39.792 47.9529 37.2083 48.0707C34.4144 48.1982 33.5763 48.2252 26.5001 48.2252C19.4237 48.2252 18.5857 48.1982 15.7917 48.0707C13.208 47.9529 11.8049 47.5212 10.8711 47.1583C9.63411 46.6775 8.75134 46.1033 7.82407 45.1759C6.89681 44.2487 6.32246 43.3659 5.84173 42.1289C5.47882 41.1952 5.04711 39.792 4.9293 37.2083C4.80181 34.414 4.77477 33.5758 4.77477 26.5001C4.77477 19.4242 4.80181 18.586 4.9293 15.7917C5.04711 13.208 5.47882 11.8048 5.84173 10.8711C6.32246 9.63411 6.8967 8.75134 7.82407 7.82407C8.75134 6.8967 9.63411 6.32246 10.8711 5.84173C11.8049 5.47882 13.208 5.04711 15.7917 4.92929C18.5861 4.8018 19.4242 4.77477 26.5001 4.77477Z" fill="url(#paint4_linear_141_9043)"/>
<path fill-rule="evenodd" clip-rule="evenodd" d="M26.5001 0C19.303 0 18.4006 0.0305057 15.5741 0.159471C12.7535 0.288121 10.8271 0.736133 9.14149 1.39127C7.39888 2.06839 5.92104 2.97451 4.44772 4.44772C2.97451 5.92104 2.06839 7.39888 1.39127 9.14149C0.736133 10.8271 0.288121 12.7535 0.159471 15.5741C0.0305057 18.4006 0 19.303 0 26.5001C0 33.697 0.0305057 34.5994 0.159471 37.4259C0.288121 40.2465 0.736133 42.1729 1.39127 43.8585C2.06839 45.6011 2.97451 47.079 4.44772 48.5523C5.92104 50.0255 7.39888 50.9316 9.14149 51.6088C10.8271 52.2639 12.7535 52.7119 15.5741 52.8405C18.4006 52.9695 19.303 53 26.5001 53C33.697 53 34.5994 52.9695 37.4259 52.8405C40.2465 52.7119 42.1729 52.2639 43.8585 51.6088C45.6011 50.9316 47.079 50.0255 48.5523 48.5523C50.0255 47.079 50.9316 45.6011 51.6088 43.8585C52.2639 42.1729 52.7119 40.2465 52.8405 37.4259C52.9695 34.5994 53 33.697 53 26.5001C53 19.303 52.9695 18.4006 52.8405 15.5741C52.7119 12.7535 52.2639 10.8271 51.6088 9.14149C50.9316 7.39888 50.0255 5.92104 48.5523 4.44772C47.079 2.97451 45.6011 2.06839 43.8585 1.39127C42.1729 0.736133 40.2465 0.288121 37.4259 0.159471C34.5994 0.0305057 33.697 0 26.5001 0ZM26.5001 4.77477C33.5758 4.77477 34.414 4.8018 37.2083 4.92929C39.792 5.04711 41.1952 5.47882 42.1289 5.84173C43.3659 6.32246 44.2487 6.8967 45.1759 7.82407C46.1033 8.75134 46.6776 9.63411 47.1583 10.8711C47.5212 11.8048 47.9529 13.208 48.0707 15.7917C48.1982 18.586 48.2252 19.4242 48.2252 26.5001C48.2252 33.5758 48.1982 34.414 48.0707 37.2083C47.9529 39.792 47.5212 41.1952 47.1583 42.1289C46.6776 43.3659 46.1033 44.2487 45.1759 45.1759C44.2487 46.1033 43.3659 46.6775 42.1289 47.1583C41.1952 47.5212 39.792 47.9529 37.2083 48.0707C34.4144 48.1982 33.5763 48.2252 26.5001 48.2252C19.4237 48.2252 18.5857 48.1982 15.7917 48.0707C13.208 47.9529 11.8049 47.5212 10.8711 47.1583C9.63411 46.6775 8.75134 46.1033 7.82407 45.1759C6.89681 44.2487 6.32246 43.3659 5.84173 42.1289C5.47882 41.1952 5.04711 39.792 4.9293 37.2083C4.80181 34.414 4.77477 33.5758 4.77477 26.5001C4.77477 19.4242 4.80181 18.586 4.9293 15.7917C5.04711 13.208 5.47882 11.8048 5.84173 10.8711C6.32246 9.63411 6.8967 8.75134 7.82407 7.82407C8.75134 6.8967 9.63411 6.32246 10.8711 5.84173C11.8049 5.47882 13.208 5.04711 15.7917 4.92929C18.5861 4.8018 19.4242 4.77477 26.5001 4.77477Z" fill="url(#paint5_radial_141_9043)"/>
<defs>
<linearGradient id="paint0_linear_141_9043" x1="3.09238" y1="2.78636" x2="19.8028" y2="67.4244" gradientUnits="userSpaceOnUse">
<stop stop-color="#4E60D3"/>
<stop offset="0.142763" stop-color="#913BAF"/>
<stop offset="0.761458" stop-color="#D52D88"/>
<stop offset="1" stop-color="#F26D4F"/>
</linearGradient>
<radialGradient id="paint1_radial_141_9043" cx="0" cy="0" r="1" gradientUnits="userSpaceOnUse" gradientTransform="translate(16.0454 53) rotate(32.1601) scale(49.4992 35.623)">
<stop stop-color="#FED276"/>
<stop offset="0.17024" stop-color="#FDBD61" stop-opacity="0.975006"/>
<stop offset="0.454081" stop-color="#F6804D"/>
<stop offset="1" stop-color="#E83D5C" stop-opacity="0.01"/>
</radialGradient>
<linearGradient id="paint2_linear_141_9043" x1="3.09238" y1="2.78636" x2="19.8028" y2="67.4244" gradientUnits="userSpaceOnUse">
<stop stop-color="#4E60D3"/>
<stop offset="0.142763" stop-color="#913BAF"/>
<stop offset="0.761458" stop-color="#D52D88"/>
<stop offset="1" stop-color="#F26D4F"/>
</linearGradient>
<radialGradient id="paint3_radial_141_9043" cx="0" cy="0" r="1" gradientUnits="userSpaceOnUse" gradientTransform="translate(16.0454 53) rotate(32.1601) scale(49.4992 35.623)">
<stop stop-color="#FED276"/>
<stop offset="0.17024" stop-color="#FDBD61" stop-opacity="0.975006"/>
<stop offset="0.454081" stop-color="#F6804D"/>
<stop offset="1" stop-color="#E83D5C" stop-opacity="0.01"/>
</radialGradient>
<linearGradient id="paint4_linear_141_9043" x1="3.09238" y1="2.78636" x2="19.8028" y2="67.4244" gradientUnits="userSpaceOnUse">
<stop stop-color="#4E60D3"/>
<stop offset="0.142763" stop-color="#913BAF"/>
<stop offset="0.761458" stop-color="#D52D88"/>
<stop offset="1" stop-color="#F26D4F"/>
</linearGradient>
<radialGradient id="paint5_radial_141_9043" cx="0" cy="0" r="1" gradientUnits="userSpaceOnUse" gradientTransform="translate(16.0454 53) rotate(32.1601) scale(49.4992 35.623)">
<stop stop-color="#FED276"/>
<stop offset="0.17024" stop-color="#FDBD61" stop-opacity="0.975006"/>
<stop offset="0.454081" stop-color="#F6804D"/>
<stop offset="1" stop-color="#E83D5C" stop-opacity="0.01"/>
</radialGradient>
</defs>
</svg>
