<svg width="20" height="20" viewBox="0 0 20 20" fill="none" xmlns="http://www.w3.org/2000/svg">
<g clip-path="url(#clip0_141_8849)">
<g clip-path="url(#clip1_141_8849)">
<path d="M0.800001 9.6C0.800001 9.6 0.800001 9.6016 0.800001 9.6024C0.801601 10.1408 1.0128 10.6456 1.3968 11.0232L4.7104 14.2848C4.788 14.3616 4.8896 14.4 4.9912 14.4C5.0944 14.4 5.1976 14.36 5.276 14.2808C5.4304 14.124 5.4288 13.8704 5.2712 13.7152L1.9576 10.4536C1.8264 10.324 1.7328 10.1688 1.6728 10.0008H14.8C15.0208 10.0008 15.2 9.8216 15.2 9.6008C15.2 9.38 15.0208 9.2008 14.8 9.2008H1.672C1.732 9.0304 1.8256 8.8736 1.9584 8.7432L5.2712 5.4856C5.4288 5.3312 5.4312 5.0776 5.276 4.92C5.1216 4.7616 4.868 4.76 4.7104 4.9152L1.3976 8.1728C1.0128 8.552 0.800001 9.0576 0.800001 9.5984C0.800001 9.5984 0.800001 9.5992 0.800001 9.6ZM10.8 12C11.0208 12 11.2 12.1792 11.2 12.4V15.6C11.2 17.144 12.456 18.4 14 18.4H16.4C17.944 18.4 19.2 17.144 19.2 15.6V3.6C19.2 2.056 17.944 0.8 16.4 0.8H14C12.456 0.8 11.2 2.056 11.2 3.6V6.8C11.2 7.0208 11.0208 7.2 10.8 7.2C10.5792 7.2 10.4 7.0208 10.4 6.8V3.6C10.4 1.6152 12.0152 0 14 0H16.4C18.3848 0 20 1.6152 20 3.6V15.6C20 17.5848 18.3848 19.2 16.4 19.2H14C12.0152 19.2 10.4 17.5848 10.4 15.6V12.4C10.4 12.1792 10.5792 12 10.8 12Z" fill="#FF2424"/>
</g>
</g>
<defs>
<clipPath id="clip0_141_8849">
<rect width="20" height="20" fill="white" transform="matrix(-1 0 0 1 20 0)"/>
</clipPath>
<clipPath id="clip1_141_8849">
<rect width="20.8" height="19.2" fill="white" transform="matrix(-1 0 0 1 20.7998 0)"/>
</clipPath>
</defs>
</svg>
