<svg width="33" height="33" viewBox="0 0 33 33" fill="none" xmlns="http://www.w3.org/2000/svg">
<g clip-path="url(#clip0_141_8870)">
<path d="M31.6249 15.125C31.2602 15.125 30.9105 14.9801 30.6526 14.7222C30.3948 14.4644 30.2499 14.1147 30.2499 13.75C30.247 10.8335 29.0871 8.03729 27.0249 5.97502C24.9626 3.91275 22.1664 2.75289 19.2499 2.74998C18.8852 2.74998 18.5355 2.60511 18.2776 2.34725C18.0198 2.08939 17.8749 1.73965 17.8749 1.37498C17.8749 1.01031 18.0198 0.660569 18.2776 0.402706C18.5355 0.144844 18.8852 -2.18663e-05 19.2499 -2.18663e-05C22.8954 0.00398158 26.3905 1.45392 28.9682 4.03168C31.546 6.60944 32.9959 10.1045 32.9999 13.75C32.9999 14.1147 32.855 14.4644 32.5972 14.7222C32.3393 14.9801 31.9896 15.125 31.6249 15.125ZM27.4999 13.75C27.4999 11.5619 26.6307 9.46352 25.0835 7.91635C23.5364 6.36917 21.438 5.49998 19.2499 5.49998C18.8852 5.49998 18.5355 5.64484 18.2776 5.90271C18.0198 6.16057 17.8749 6.51031 17.8749 6.87498C17.8749 7.23965 18.0198 7.58939 18.2776 7.84725C18.5355 8.10511 18.8852 8.24998 19.2499 8.24998C20.7086 8.24998 22.1076 8.82944 23.139 9.86089C24.1705 10.8923 24.7499 12.2913 24.7499 13.75C24.7499 14.1147 24.8948 14.4644 25.1526 14.7222C25.4105 14.9801 25.7602 15.125 26.1249 15.125C26.4896 15.125 26.8393 14.9801 27.0972 14.7222C27.3551 14.4644 27.4999 14.1147 27.4999 13.75ZM30.5015 30.4755L31.7528 29.0331C32.5492 28.2341 32.9964 27.152 32.9964 26.0239C32.9964 24.8958 32.5492 23.8137 31.7528 23.0147C31.7102 22.9721 28.4019 20.427 28.4019 20.427C27.6079 19.6712 26.5533 19.2503 25.4571 19.2519C24.3609 19.2534 23.3074 19.6772 22.5155 20.4352L19.8948 22.6435C17.7555 21.7581 15.8123 20.4588 14.1766 18.8203C12.5409 17.1818 11.245 15.2363 10.3633 13.0955L12.5633 10.483C13.3219 9.69122 13.7462 8.63756 13.748 7.54103C13.7498 6.44451 13.3289 5.38947 12.5729 4.59523C12.5729 4.59523 10.025 1.2911 9.98242 1.24848C9.19791 0.458882 8.13425 0.00963341 7.02126 -0.00220154C5.90826 -0.0140365 4.83528 0.412492 4.03417 1.18523L2.45292 2.56023C-6.88883 13.398 13.2274 33.3589 24.4227 33C25.5532 33.0065 26.6735 32.7865 27.7176 32.3529C28.7617 31.9193 29.7083 31.281 30.5015 30.4755Z" fill="url(#paint0_linear_141_8870)"/>
</g>
<defs>
<linearGradient id="paint0_linear_141_8870" x1="0.0478515" y1="16.5012" x2="32.9998" y2="16.5653" gradientUnits="userSpaceOnUse">
<stop stop-color="#B007A7"/>
<stop offset="0.95" stop-color="#4F0594"/>
</linearGradient>
<clipPath id="clip0_141_8870">
<rect width="33" height="33" fill="white"/>
</clipPath>
</defs>
</svg>
