<svg width="21" height="20" viewBox="0 0 21 20" fill="none" xmlns="http://www.w3.org/2000/svg">
<g clip-path="url(#clip0_141_9063)">
<path d="M7.58333 3.33333H5.91667C4.76833 3.33333 3.83333 4.26833 3.83333 5.41667V7.08333C3.83333 8.23167 4.76833 9.16667 5.91667 9.16667H7.58333C8.73167 9.16667 9.66667 8.23167 9.66667 7.08333V5.41667C9.66667 4.26833 8.73167 3.33333 7.58333 3.33333ZM8 7.08333C8 7.31333 7.81333 7.5 7.58333 7.5H5.91667C5.68667 7.5 5.5 7.31333 5.5 7.08333V5.41667C5.5 5.18667 5.68667 5 5.91667 5H7.58333C7.81333 5 8 5.18667 8 5.41667V7.08333ZM13.4167 9.16667H15.0833C16.2317 9.16667 17.1667 8.23167 17.1667 7.08333V5.41667C17.1667 4.26833 16.2317 3.33333 15.0833 3.33333H13.4167C12.2683 3.33333 11.3333 4.26833 11.3333 5.41667V7.08333C11.3333 8.23167 12.2683 9.16667 13.4167 9.16667ZM13 5.41667C13 5.18667 13.1867 5 13.4167 5H15.0833C15.3133 5 15.5 5.18667 15.5 5.41667V7.08333C15.5 7.31333 15.3133 7.5 15.0833 7.5H13.4167C13.1867 7.5 13 7.31333 13 7.08333V5.41667ZM7.58333 10.8333H5.91667C4.76833 10.8333 3.83333 11.7683 3.83333 12.9167V14.5833C3.83333 15.7317 4.76833 16.6667 5.91667 16.6667H7.58333C8.73167 16.6667 9.66667 15.7317 9.66667 14.5833V12.9167C9.66667 11.7683 8.73167 10.8333 7.58333 10.8333ZM8 14.5833C8 14.8133 7.81333 15 7.58333 15H5.91667C5.68667 15 5.5 14.8133 5.5 14.5833V12.9167C5.5 12.6867 5.68667 12.5 5.91667 12.5H7.58333C7.81333 12.5 8 12.6867 8 12.9167V14.5833ZM7.16667 19.1667C7.16667 19.6267 6.79333 20 6.33333 20H4.66667C2.36917 20 0.5 18.1308 0.5 15.8333V14.1667C0.5 13.7067 0.873333 13.3333 1.33333 13.3333C1.79333 13.3333 2.16667 13.7067 2.16667 14.1667V15.8333C2.16667 17.2117 3.28833 18.3333 4.66667 18.3333H6.33333C6.79333 18.3333 7.16667 18.7067 7.16667 19.1667ZM20.5 14.1667V15.8333C20.5 18.1308 18.6308 20 16.3333 20H14.6667C14.2067 20 13.8333 19.6267 13.8333 19.1667C13.8333 18.7067 14.2067 18.3333 14.6667 18.3333H16.3333C17.7117 18.3333 18.8333 17.2117 18.8333 15.8333V14.1667C18.8333 13.7067 19.2067 13.3333 19.6667 13.3333C20.1267 13.3333 20.5 13.7067 20.5 14.1667ZM20.5 4.16667V5.83333C20.5 6.29333 20.1267 6.66667 19.6667 6.66667C19.2067 6.66667 18.8333 6.29333 18.8333 5.83333V4.16667C18.8333 2.78833 17.7117 1.66667 16.3333 1.66667H14.6667C14.2067 1.66667 13.8333 1.29333 13.8333 0.833333C13.8333 0.373333 14.2067 0 14.6667 0H16.3333C18.6308 0 20.5 1.86917 20.5 4.16667ZM0.5 5.83333V4.16667C0.5 1.86917 2.36917 0 4.66667 0H6.33333C6.79333 0 7.16667 0.373333 7.16667 0.833333C7.16667 1.29333 6.79333 1.66667 6.33333 1.66667H4.66667C3.28833 1.66667 2.16667 2.78833 2.16667 4.16667V5.83333C2.16667 6.29333 1.79333 6.66667 1.33333 6.66667C0.873333 6.66667 0.5 6.29333 0.5 5.83333ZM13.8333 15.4167C13.8333 16.1067 13.2733 16.6667 12.5833 16.6667C11.8933 16.6667 11.3333 16.1067 11.3333 15.4167C11.3333 14.7267 11.8933 14.1667 12.5833 14.1667C13.2733 14.1667 13.8333 14.7267 13.8333 15.4167ZM15.9167 10.8333C16.6067 10.8333 17.1667 11.3933 17.1667 12.0833C17.1667 12.7733 16.6067 13.3333 15.9167 13.3333C15.2267 13.3333 14.6667 12.7733 14.6667 12.0833C14.6667 11.3933 15.2267 10.8333 15.9167 10.8333ZM11.3333 12.0833C11.3333 11.3933 11.8933 10.8333 12.5833 10.8333C13.2733 10.8333 13.8333 11.3933 13.8333 12.0833C13.8333 12.7733 13.2733 13.3333 12.5833 13.3333C11.8933 13.3333 11.3333 12.7733 11.3333 12.0833Z" fill="white"/>
</g>
<defs>
<clipPath id="clip0_141_9063">
<rect width="20" height="20" fill="white" transform="translate(0.5)"/>
</clipPath>
</defs>
</svg>
