<svg width="20" height="20" viewBox="0 0 20 20" fill="none" xmlns="http://www.w3.org/2000/svg">
<path d="M7.08333 3.33333H5.41667C4.26833 3.33333 3.33333 4.26833 3.33333 5.41667V7.08333C3.33333 8.23167 4.26833 9.16667 5.41667 9.16667H7.08333C8.23167 9.16667 9.16667 8.23167 9.16667 7.08333V5.41667C9.16667 4.26833 8.23167 3.33333 7.08333 3.33333ZM7.5 7.08333C7.5 7.31333 7.31333 7.5 7.08333 7.5H5.41667C5.18667 7.5 5 7.31333 5 7.08333V5.41667C5 5.18667 5.18667 5 5.41667 5H7.08333C7.31333 5 7.5 5.18667 7.5 5.41667V7.08333ZM12.9167 9.16667H14.5833C15.7317 9.16667 16.6667 8.23167 16.6667 7.08333V5.41667C16.6667 4.26833 15.7317 3.33333 14.5833 3.33333H12.9167C11.7683 3.33333 10.8333 4.26833 10.8333 5.41667V7.08333C10.8333 8.23167 11.7683 9.16667 12.9167 9.16667ZM12.5 5.41667C12.5 5.18667 12.6867 5 12.9167 5H14.5833C14.8133 5 15 5.18667 15 5.41667V7.08333C15 7.31333 14.8133 7.5 14.5833 7.5H12.9167C12.6867 7.5 12.5 7.31333 12.5 7.08333V5.41667ZM7.08333 10.8333H5.41667C4.26833 10.8333 3.33333 11.7683 3.33333 12.9167V14.5833C3.33333 15.7317 4.26833 16.6667 5.41667 16.6667H7.08333C8.23167 16.6667 9.16667 15.7317 9.16667 14.5833V12.9167C9.16667 11.7683 8.23167 10.8333 7.08333 10.8333ZM7.5 14.5833C7.5 14.8133 7.31333 15 7.08333 15H5.41667C5.18667 15 5 14.8133 5 14.5833V12.9167C5 12.6867 5.18667 12.5 5.41667 12.5H7.08333C7.31333 12.5 7.5 12.6867 7.5 12.9167V14.5833ZM6.66667 19.1667C6.66667 19.6267 6.29333 20 5.83333 20H4.16667C1.86917 20 0 18.1308 0 15.8333V14.1667C0 13.7067 0.373333 13.3333 0.833333 13.3333C1.29333 13.3333 1.66667 13.7067 1.66667 14.1667V15.8333C1.66667 17.2117 2.78833 18.3333 4.16667 18.3333H5.83333C6.29333 18.3333 6.66667 18.7067 6.66667 19.1667ZM20 14.1667V15.8333C20 18.1308 18.1308 20 15.8333 20H14.1667C13.7067 20 13.3333 19.6267 13.3333 19.1667C13.3333 18.7067 13.7067 18.3333 14.1667 18.3333H15.8333C17.2117 18.3333 18.3333 17.2117 18.3333 15.8333V14.1667C18.3333 13.7067 18.7067 13.3333 19.1667 13.3333C19.6267 13.3333 20 13.7067 20 14.1667ZM20 4.16667V5.83333C20 6.29333 19.6267 6.66667 19.1667 6.66667C18.7067 6.66667 18.3333 6.29333 18.3333 5.83333V4.16667C18.3333 2.78833 17.2117 1.66667 15.8333 1.66667H14.1667C13.7067 1.66667 13.3333 1.29333 13.3333 0.833333C13.3333 0.373333 13.7067 0 14.1667 0H15.8333C18.1308 0 20 1.86917 20 4.16667ZM0 5.83333V4.16667C0 1.86917 1.86917 0 4.16667 0H5.83333C6.29333 0 6.66667 0.373333 6.66667 0.833333C6.66667 1.29333 6.29333 1.66667 5.83333 1.66667H4.16667C2.78833 1.66667 1.66667 2.78833 1.66667 4.16667V5.83333C1.66667 6.29333 1.29333 6.66667 0.833333 6.66667C0.373333 6.66667 0 6.29333 0 5.83333ZM13.3333 15.4167C13.3333 16.1067 12.7733 16.6667 12.0833 16.6667C11.3933 16.6667 10.8333 16.1067 10.8333 15.4167C10.8333 14.7267 11.3933 14.1667 12.0833 14.1667C12.7733 14.1667 13.3333 14.7267 13.3333 15.4167ZM15.4167 10.8333C16.1067 10.8333 16.6667 11.3933 16.6667 12.0833C16.6667 12.7733 16.1067 13.3333 15.4167 13.3333C14.7267 13.3333 14.1667 12.7733 14.1667 12.0833C14.1667 11.3933 14.7267 10.8333 15.4167 10.8333ZM10.8333 12.0833C10.8333 11.3933 11.3933 10.8333 12.0833 10.8333C12.7733 10.8333 13.3333 11.3933 13.3333 12.0833C13.3333 12.7733 12.7733 13.3333 12.0833 13.3333C11.3933 13.3333 10.8333 12.7733 10.8333 12.0833Z" fill="#505050"/>
</svg>
