<svg width="19" height="18" viewBox="0 0 19 18" fill="none" xmlns="http://www.w3.org/2000/svg">
<g clip-path="url(#clip0_141_8899)">
<path d="M14.9996 11.0004C14.4326 11.0009 13.8741 11.1393 13.3725 11.4038C12.8709 11.6683 12.4412 12.0508 12.1204 12.5184L7.23864 10.3142C7.58537 9.47691 7.58672 8.53645 7.24239 7.69819L12.1174 5.48269C12.5928 6.17025 13.2989 6.66466 14.1076 6.87622C14.9163 7.08778 15.774 7.00249 16.5252 6.63581C17.2764 6.26913 17.8713 5.64536 18.202 4.87764C18.5327 4.10991 18.5773 3.24909 18.3277 2.45132C18.078 1.65354 17.5507 0.971658 16.8414 0.529352C16.1321 0.0870461 15.2878 -0.086385 14.4616 0.0405177C13.6353 0.16742 12.8819 0.586251 12.3381 1.22104C11.7942 1.85582 11.4958 2.66452 11.4971 3.50044C11.5003 3.69829 11.5204 3.8955 11.5571 4.08994L6.37464 6.44494C5.87689 5.9786 5.25377 5.66781 4.58182 5.55076C3.90987 5.4337 3.21836 5.51547 2.59225 5.78603C1.96613 6.05658 1.43268 6.50414 1.05744 7.07371C0.682189 7.64328 0.481488 8.31005 0.479989 8.99212C0.47849 9.67419 0.676259 10.3418 1.049 10.9131C1.42174 11.4843 1.95322 11.9342 2.57814 12.2075C3.20306 12.4808 3.8942 12.5656 4.56666 12.4515C5.23912 12.3374 5.8636 12.0293 6.36339 11.5652L11.5594 13.9112C11.5233 14.1054 11.5035 14.3024 11.5001 14.4999C11.5 15.1923 11.7052 15.8691 12.0897 16.4449C12.4743 17.0206 13.0209 17.4693 13.6606 17.7344C14.3002 17.9994 15.004 18.0688 15.6831 17.9337C16.3621 17.7987 16.9859 17.4653 17.4754 16.9757C17.965 16.4862 18.2984 15.8624 18.4334 15.1834C18.5685 14.5043 18.4991 13.8005 18.2341 13.1609C17.969 12.5212 17.5203 11.9746 16.9446 11.59C16.3688 11.2055 15.692 11.0003 14.9996 11.0004ZM14.9996 1.50019C15.3953 1.50004 15.7821 1.61722 16.1111 1.83692C16.4402 2.05662 16.6967 2.36897 16.8482 2.73445C16.9997 3.09994 17.0394 3.50215 16.9623 3.89021C16.8852 4.27827 16.6948 4.63475 16.415 4.91456C16.1353 5.19438 15.7789 5.38496 15.3909 5.4622C15.0029 5.53944 14.6006 5.49987 14.2351 5.3485C13.8696 5.19713 13.5571 4.94075 13.3373 4.61179C13.1175 4.28284 13.0001 3.89608 13.0001 3.50044C13.0005 2.97019 13.2113 2.46176 13.5862 2.08675C13.961 1.71174 14.4694 1.50078 14.9996 1.50019ZM4.00014 11.0004C3.60449 11.0006 3.21769 10.8834 2.88866 10.6637C2.55962 10.444 2.30312 10.1317 2.15161 9.76617C2.0001 9.40068 1.96039 8.99848 2.03748 8.61042C2.11458 8.22236 2.30502 7.86588 2.58473 7.58606C2.86444 7.30625 3.22085 7.11567 3.60888 7.03843C3.99691 6.96118 4.39914 7.00075 4.76468 7.15212C5.13022 7.3035 5.44266 7.55987 5.66248 7.88883C5.88231 8.21778 5.99964 8.60454 5.99964 9.00019C5.99904 9.53037 5.78822 10.0387 5.41339 10.4137C5.03856 10.7886 4.53033 10.9996 4.00014 11.0004ZM14.9996 16.5002C14.604 16.5002 14.2173 16.3829 13.8884 16.1631C13.5594 15.9433 13.303 15.6309 13.1516 15.2654C13.0003 14.8999 12.9606 14.4977 13.0378 14.1097C13.115 13.7217 13.3055 13.3653 13.5852 13.0855C13.865 12.8058 14.2214 12.6153 14.6094 12.5381C14.9974 12.4609 15.3996 12.5006 15.7651 12.6519C16.1306 12.8033 16.443 13.0597 16.6628 13.3887C16.8826 13.7176 16.9999 14.1043 16.9999 14.4999C16.9995 15.0303 16.7886 15.5389 16.4136 15.9139C16.0386 16.2889 15.53 16.4998 14.9996 16.5002Z" fill="#919191"/>
</g>
<defs>
<clipPath id="clip0_141_8899">
<rect width="18" height="18" fill="white" transform="translate(0.5)"/>
</clipPath>
</defs>
</svg>
