<svg width="52" height="52" viewBox="0 0 52 52" fill="none" xmlns="http://www.w3.org/2000/svg">
<path d="M14.4044 43.7545L15.1869 44.2183C18.4747 46.1693 22.2441 47.2012 26.0879 47.2033H26.0963C37.9008 47.2033 47.5085 37.5978 47.5136 25.7923C47.5153 20.071 45.2901 14.6914 41.2462 10.6446C37.2022 6.59793 31.8254 4.36796 26.1043 4.36562C14.2904 4.36562 4.68296 13.9697 4.67826 25.7749C4.67666 29.8203 5.80851 33.7601 7.95261 37.1692L8.46238 37.9791L6.29814 45.8798L14.4044 43.7545ZM0.111328 51.9999L3.76708 38.6516C1.51227 34.7451 0.325936 30.3133 0.327666 25.7732C0.333349 11.57 11.8924 0.0146484 26.0963 0.0146484C32.9891 0.0176137 39.4587 2.7004 44.3241 7.56917C49.1888 12.4383 51.8669 18.9105 51.8646 25.794C51.8585 39.9965 40.2979 51.5539 26.0963 51.5539C26.0953 51.5539 26.0969 51.5539 26.0963 51.5539H26.0852C21.7729 51.5522 17.5352 50.4706 13.7716 48.4181L0.111328 51.9999Z" fill="white"/>
<path d="M1.19828 25.7529C1.19828 30.1693 2.35255 34.4351 4.56071 38.199L0.997536 51.0967L14.1964 47.6339C17.8097 49.6413 21.9249 50.645 26.0903 50.645C39.791 50.645 50.9824 39.5038 50.9824 25.8031C50.9824 19.1284 48.3728 12.9054 43.7055 8.18797C38.9881 3.5207 32.765 0.911053 26.0903 0.911053C12.3897 0.911053 1.19828 12.0523 1.19828 25.7529Z" fill="url(#paint0_linear_141_9053)"/>
<path d="M0.309513 25.7328C0.309513 30.3075 1.50518 34.7262 3.79253 38.6251L0.101574 51.9854L13.7737 48.3984C17.5166 50.4778 21.7794 51.5175 26.0942 51.5175C40.2862 51.5175 51.8789 39.9768 51.8789 25.7848C51.8789 18.8707 49.1757 12.4246 44.341 7.53794C39.4544 2.70331 33.0083 7.62939e-05 26.0942 7.62939e-05C11.9022 7.62939e-05 0.309513 11.5408 0.309513 25.7328ZM8.4712 37.9493L7.95135 37.1695C5.81995 33.7385 4.67628 29.7876 4.67628 25.7848C4.67628 13.9321 14.2936 4.36684 26.0942 4.36684C31.8126 4.36684 37.2191 6.60221 41.2219 10.6051C45.2768 14.6599 47.5121 20.0664 47.5121 25.7848C47.5121 37.5854 37.8949 47.2027 26.0942 47.2027C22.2473 47.2027 18.4524 46.163 15.1773 44.1876L14.3975 43.7197L6.28782 45.8511L8.4712 37.9493Z" fill="url(#paint1_linear_141_9053)"/>
<path fill-rule="evenodd" clip-rule="evenodd" d="M19.6553 15.0138C19.173 13.9416 18.6653 13.9201 18.2064 13.9013C17.8312 13.8853 17.4015 13.8862 16.9725 13.8862C16.5433 13.8862 15.8456 14.0475 15.2558 14.6918C14.6654 15.3361 13.002 16.8936 13.002 20.0613C13.002 23.2294 15.3094 26.2904 15.631 26.7203C15.953 27.1497 20.0853 33.858 26.6296 36.4389C32.0686 38.5836 33.1753 38.1569 34.3559 38.0497C35.5364 37.9423 38.1652 36.4925 38.7018 34.989C39.2384 33.4857 39.2384 32.1972 39.0774 31.9279C38.9164 31.6595 38.4872 31.4985 37.8432 31.1766C37.1993 30.8546 34.0339 29.2967 33.4436 29.0821C32.8534 28.8675 32.424 28.7602 31.9948 29.4047C31.5655 30.0487 30.3323 31.4985 29.9566 31.9279C29.581 32.3582 29.2054 32.4118 28.5615 32.0899C27.9175 31.7669 25.8438 31.0877 23.3838 28.8943C21.4698 27.1879 20.1775 25.0803 19.8018 24.4358C19.4262 23.7918 19.7617 23.443 20.0846 23.122C20.3737 22.8336 20.7286 22.3705 21.0506 21.9945C21.3718 21.6186 21.4792 21.3502 21.6938 20.9209C21.9084 20.4909 21.8011 20.1149 21.6401 19.793C21.4792 19.471 20.2278 16.2868 19.6553 15.0138Z" fill="white"/>
<defs>
<linearGradient id="paint0_linear_141_9053" x1="25.9872" y1="51.0967" x2="25.9872" y2="0.911053" gradientUnits="userSpaceOnUse">
<stop stop-color="#20B038"/>
<stop offset="1" stop-color="#60D66A"/>
</linearGradient>
<linearGradient id="paint1_linear_141_9053" x1="25.988" y1="51.9854" x2="25.988" y2="7.62939e-05" gradientUnits="userSpaceOnUse">
<stop stop-color="#F9F9F9"/>
<stop offset="1" stop-color="white"/>
</linearGradient>
</defs>
</svg>
